<svg xmlns="http://www.w3.org/2000/svg" width="32" height="32" viewBox="0 0 576 512">
  <path fill="#0085ff" d="M407.8 294.7c-3.3-.4-6.7-.8-10-1.3c3.4.4 6.7.9 10 1.3zM288 227.1C261.9 176.4 190.9 81.9 124.9 35.3C61.6-9.4 37.5-1.7 21.6 5.5C3.3 13.8 0 41.9 0 58.4S9.1 194 15 213.9c19.5 65.7 89.1 87.9 153.2 80.7c3.3-.5 6.6-.9 10-1.4c-3.3.5-6.6 1-10 1.4C54.3 309.5 6.5 374.3 50.4 449.1C99.9 533.3 304.9 500.9 288 346.2c16.9 154.7 188.1 187.1 237.6 102.9c43.9-74.9-3.8-139.6-117.7-154.5c3.3-.4 6.7-.8 10-1.3c-3.3.4-6.7.9-10 1.3c64.1 7.1 133.6-15.1 153.2-80.7C566.9 194 576 94 576 58.4s-3.3-44.6-21.6-52.9c-15.9-7.2-40-14.9-103.3 29.8C385.1 81.9 314.1 176.4 288 227.1z"/>
</svg>
